<?xml version="1.0" encoding="UTF-8"?>
<!DOCTYPE svg PUBLIC "-//W3C//DTD SVG 1.1//EN" "http://www.w3.org/Graphics/SVG/1.1/DTD/svg11.dtd">
<svg xmlns="http://www.w3.org/2000/svg" version="1.1" width="1541px" height="514px" style="shape-rendering:geometricPrecision; text-rendering:geometricPrecision; image-rendering:optimizeQuality; fill-rule:evenodd; clip-rule:evenodd" xmlns:xlink="http://www.w3.org/1999/xlink">
<g><path style="opacity:0.997" fill="#e41d30" d="M -0.5,-0.5 C 513.167,-0.5 1026.83,-0.5 1540.5,-0.5C 1540.5,170.833 1540.5,342.167 1540.5,513.5C 1026.83,513.5 513.167,513.5 -0.5,513.5C -0.5,342.167 -0.5,170.833 -0.5,-0.5 Z"/></g>
<g><path style="opacity:1" fill="#fdfdfd" d="M 329.5,317.5 C 339.708,317.842 349.708,318.842 359.5,320.5C 357.449,343.163 355.449,365.829 353.5,388.5C 337.5,388.5 321.5,388.5 305.5,388.5C 305.5,380.833 305.5,373.167 305.5,365.5C 254.833,365.5 204.167,365.5 153.5,365.5C 153.5,293.833 153.5,222.167 153.5,150.5C 170.833,150.5 188.167,150.5 205.5,150.5C 205.5,206.167 205.5,261.833 205.5,317.5C 229.167,317.5 252.833,317.5 276.5,317.5C 276.5,261.833 276.5,206.167 276.5,150.5C 294.167,150.5 311.833,150.5 329.5,150.5C 329.5,206.167 329.5,261.833 329.5,317.5 Z"/></g>
<g><path style="opacity:1" fill="#f49ea4" d="M 529.5,150.5 C 512.167,150.5 494.833,150.5 477.5,150.5C 477.823,156.69 477.49,162.69 476.5,168.5C 476.5,162.167 476.5,155.833 476.5,149.5C 494.341,149.17 512.008,149.503 529.5,150.5 Z"/></g>
<g><path style="opacity:1" fill="#fdfdfd" d="M 529.5,150.5 C 529.5,156.833 529.5,163.167 529.5,169.5C 533.5,169.5 537.5,169.5 541.5,169.5C 603.296,176.793 632.129,211.46 628,273.5C 620.227,316.937 594.393,341.771 550.5,348C 543.524,348.892 536.524,349.392 529.5,349.5C 529.5,354.833 529.5,360.167 529.5,365.5C 511.833,365.5 494.167,365.5 476.5,365.5C 476.5,360.167 476.5,354.833 476.5,349.5C 444.627,350.494 417.793,339.494 396,316.5C 383.207,299.021 377.041,279.354 377.5,257.5C 379.001,213.831 400.668,185.665 442.5,173C 453.859,170.635 465.192,169.135 476.5,168.5C 477.49,162.69 477.823,156.69 477.5,150.5C 494.833,150.5 512.167,150.5 529.5,150.5 Z"/></g>
<g><path style="opacity:1" fill="#ed6772" d="M 529.5,150.5 C 530.49,156.31 530.823,162.31 530.5,168.5C 534.371,168.185 538.038,168.518 541.5,169.5C 537.5,169.5 533.5,169.5 529.5,169.5C 529.5,163.167 529.5,156.833 529.5,150.5 Z"/></g>
<g><path style="opacity:1" fill="#fdfdfd" d="M 648.5,150.5 C 707.167,150.5 765.833,150.5 824.5,150.5C 824.5,166.167 824.5,181.833 824.5,197.5C 803.833,197.5 783.167,197.5 762.5,197.5C 762.5,253.5 762.5,309.5 762.5,365.5C 744.833,365.5 727.167,365.5 709.5,365.5C 709.5,309.833 709.5,254.167 709.5,198.5C 689.34,197.503 669.007,197.17 648.5,197.5C 648.5,181.833 648.5,166.167 648.5,150.5 Z"/></g>
<g><path style="opacity:1" fill="#fdfbfb" d="M 947.5,150.5 C 950.5,150.5 953.5,150.5 956.5,150.5C 956.171,163.011 956.505,175.345 957.5,187.5C 959.167,187.5 960.833,187.5 962.5,187.5C 962.5,193.5 962.5,199.5 962.5,205.5C 959.167,205.5 955.833,205.5 952.5,205.5C 952.5,202.5 952.5,199.5 952.5,196.5C 941.167,196.5 929.833,196.5 918.5,196.5C 918.5,181.167 918.5,165.833 918.5,150.5C 921.833,150.5 925.167,150.5 928.5,150.5C 928.5,162.833 928.5,175.167 928.5,187.5C 934.833,187.5 941.167,187.5 947.5,187.5C 947.5,175.167 947.5,162.833 947.5,150.5 Z"/></g>
<g><path style="opacity:1" fill="#f39aa3" d="M 947.5,150.5 C 950.625,149.521 953.958,149.187 957.5,149.5C 957.5,162.167 957.5,174.833 957.5,187.5C 956.505,175.345 956.171,163.011 956.5,150.5C 953.5,150.5 950.5,150.5 947.5,150.5 Z"/></g>
<g><path style="opacity:1" fill="#fdfcfc" d="M 1000.5,168.5 C 1000.5,171.167 1000.5,173.833 1000.5,176.5C 994.31,176.177 988.31,176.51 982.5,177.5C 982.5,180.833 982.5,184.167 982.5,187.5C 990.5,187.5 998.5,187.5 1006.5,187.5C 1006.5,190.167 1006.5,192.833 1006.5,195.5C 995.167,195.5 983.833,195.5 972.5,195.5C 972.5,180.5 972.5,165.5 972.5,150.5C 983.833,150.5 995.167,150.5 1006.5,150.5C 1006.5,153.167 1006.5,155.833 1006.5,158.5C 998.5,158.5 990.5,158.5 982.5,158.5C 982.5,161.833 982.5,165.167 982.5,168.5C 988.5,168.5 994.5,168.5 1000.5,168.5 Z"/></g>
<g><path style="opacity:1" fill="#fdfdfd" d="M 1018.5,150.5 C 1021.5,150.5 1024.5,150.5 1027.5,150.5C 1027.18,156.69 1027.51,162.69 1028.5,168.5C 1035.17,168.5 1041.83,168.5 1048.5,168.5C 1048.5,162.5 1048.5,156.5 1048.5,150.5C 1051.5,150.5 1054.5,150.5 1057.5,150.5C 1057.5,165.833 1057.5,181.167 1057.5,196.5C 1054.5,196.5 1051.5,196.5 1048.5,196.5C 1048.5,190.167 1048.5,183.833 1048.5,177.5C 1041.83,177.5 1035.17,177.5 1028.5,177.5C 1027.51,183.31 1027.18,189.31 1027.5,195.5C 1024.5,195.5 1021.5,195.5 1018.5,195.5C 1018.5,180.5 1018.5,165.5 1018.5,150.5 Z"/></g>
<g><path style="opacity:1" fill="#f6aeb4" d="M 1018.5,150.5 C 1021.62,149.521 1024.96,149.187 1028.5,149.5C 1028.5,155.833 1028.5,162.167 1028.5,168.5C 1027.51,162.69 1027.18,156.69 1027.5,150.5C 1024.5,150.5 1021.5,150.5 1018.5,150.5 Z"/></g>
<g><path style="opacity:1" fill="#fdfcfc" d="M 1067.5,150.5 C 1079.5,150.5 1091.5,150.5 1103.5,150.5C 1103.5,153.167 1103.5,155.833 1103.5,158.5C 1099.17,158.5 1094.83,158.5 1090.5,158.5C 1090.5,171.167 1090.5,183.833 1090.5,196.5C 1087.17,196.5 1083.83,196.5 1080.5,196.5C 1080.5,183.833 1080.5,171.167 1080.5,158.5C 1076.17,158.5 1071.83,158.5 1067.5,158.5C 1067.5,155.833 1067.5,153.167 1067.5,150.5 Z"/></g>
<g><path style="opacity:1" fill="#f398a1" d="M 1134.5,150.5 C 1127.5,150.5 1120.5,150.5 1113.5,150.5C 1113.5,165.833 1113.5,181.167 1113.5,196.5C 1112.5,181.009 1112.17,165.342 1112.5,149.5C 1120.02,149.175 1127.35,149.508 1134.5,150.5 Z"/></g>
<g><path style="opacity:1" fill="#fdfcfc" d="M 1134.5,150.5 C 1143.12,151.62 1147.79,156.453 1148.5,165C 1148.47,173.2 1144.47,178.366 1136.5,180.5C 1131.83,180.5 1127.17,180.5 1122.5,180.5C 1122.5,185.833 1122.5,191.167 1122.5,196.5C 1119.5,196.5 1116.5,196.5 1113.5,196.5C 1113.5,181.167 1113.5,165.833 1113.5,150.5C 1120.5,150.5 1127.5,150.5 1134.5,150.5 Z"/></g>
<g><path style="opacity:1" fill="#ee717c" d="M 1133.5,159.5 C 1130.17,159.5 1126.83,159.5 1123.5,159.5C 1123.5,163.5 1123.5,167.5 1123.5,171.5C 1127.17,171.5 1130.83,171.5 1134.5,171.5C 1130.7,172.483 1126.7,172.817 1122.5,172.5C 1122.5,167.833 1122.5,163.167 1122.5,158.5C 1126.37,158.185 1130.04,158.518 1133.5,159.5 Z"/></g>
<g><path style="opacity:1" fill="#e42132" d="M 1133.5,159.5 C 1137.19,160.034 1138.86,162.201 1138.5,166C 1138.86,169.133 1137.52,170.967 1134.5,171.5C 1130.83,171.5 1127.17,171.5 1123.5,171.5C 1123.5,167.5 1123.5,163.5 1123.5,159.5C 1126.83,159.5 1130.17,159.5 1133.5,159.5 Z"/></g>
<g><path style="opacity:1" fill="#f4abb2" d="M 1000.5,168.5 C 1001.48,171.287 1001.81,174.287 1001.5,177.5C 995.167,177.5 988.833,177.5 982.5,177.5C 988.31,176.51 994.31,176.177 1000.5,176.5C 1000.5,173.833 1000.5,171.167 1000.5,168.5 Z"/></g>
<g><path style="opacity:1" fill="#f7c4c9" d="M 1028.5,177.5 C 1028.5,183.833 1028.5,190.167 1028.5,196.5C 1024.96,196.813 1021.62,196.479 1018.5,195.5C 1021.5,195.5 1024.5,195.5 1027.5,195.5C 1027.18,189.31 1027.51,183.31 1028.5,177.5 Z"/></g>
<g><path style="opacity:1" fill="#f07983" d="M 1136.5,180.5 C 1132.37,181.485 1128.03,181.818 1123.5,181.5C 1123.82,186.695 1123.49,191.695 1122.5,196.5C 1122.5,191.167 1122.5,185.833 1122.5,180.5C 1127.17,180.5 1131.83,180.5 1136.5,180.5 Z"/></g>
<g><path style="opacity:1" fill="#f9cbcf" d="M 1006.5,187.5 C 1007.48,190.287 1007.81,193.287 1007.5,196.5C 995.655,196.828 983.988,196.495 972.5,195.5C 983.833,195.5 995.167,195.5 1006.5,195.5C 1006.5,192.833 1006.5,190.167 1006.5,187.5 Z"/></g>
<g><path style="opacity:1" fill="#f39aa1" d="M 648.5,150.5 C 648.5,166.167 648.5,181.833 648.5,197.5C 669.007,197.17 689.34,197.503 709.5,198.5C 688.833,198.5 668.167,198.5 647.5,198.5C 647.17,182.325 647.504,166.325 648.5,150.5 Z"/></g>
<g><path style="opacity:1" fill="#ef7681" d="M 824.5,197.5 C 804.34,198.497 784.007,198.83 763.5,198.5C 763.832,254.336 763.499,310.002 762.5,365.5C 762.5,309.5 762.5,253.5 762.5,197.5C 783.167,197.5 803.833,197.5 824.5,197.5 Z"/></g>
<g><path style="opacity:1" fill="#e41e30" d="M 467.5,213.5 C 470.5,213.5 473.5,213.5 476.5,213.5C 476.5,244.167 476.5,274.833 476.5,305.5C 440.43,304.258 423.93,285.591 427,249.5C 432.18,228.154 445.68,216.154 467.5,213.5 Z"/></g>
<g><path style="opacity:1" fill="#f5b3b8" d="M 467.5,213.5 C 470.625,212.521 473.958,212.187 477.5,212.5C 477.831,243.671 477.498,274.671 476.5,305.5C 476.5,274.833 476.5,244.167 476.5,213.5C 473.5,213.5 470.5,213.5 467.5,213.5 Z"/></g>
<g><path style="opacity:1" fill="#ec616e" d="M 535.5,213.5 C 533.833,213.5 532.167,213.5 530.5,213.5C 530.5,244.167 530.5,274.833 530.5,305.5C 529.502,274.671 529.169,243.671 529.5,212.5C 531.735,212.205 533.735,212.539 535.5,213.5 Z"/></g>
<g><path style="opacity:1" fill="#e41e30" d="M 535.5,213.5 C 556.902,214.086 571.068,224.42 578,244.5C 582.652,263.145 578.819,279.645 566.5,294C 555.937,302.131 543.937,305.965 530.5,305.5C 530.5,274.833 530.5,244.167 530.5,213.5C 532.167,213.5 533.833,213.5 535.5,213.5 Z"/></g>
<g><path style="opacity:1" fill="#fdf8f8" d="M 936.5,233.5 C 939.833,233.5 943.167,233.5 946.5,233.5C 946.5,235.167 946.5,236.833 946.5,238.5C 958.677,238.846 965.677,245.013 967.5,257C 965.501,268.831 958.501,275.331 946.5,276.5C 946.5,278.5 946.5,280.5 946.5,282.5C 943.167,282.5 939.833,282.5 936.5,282.5C 936.5,280.5 936.5,278.5 936.5,276.5C 920.987,275.162 914.154,266.829 916,251.5C 919.836,242.506 926.669,238.173 936.5,238.5C 936.5,236.833 936.5,235.167 936.5,233.5 Z"/></g>
<g><path style="opacity:1" fill="#fdf7f7" d="M 1207.5,233.5 C 1217.42,232.637 1225.75,235.804 1232.5,243C 1230.62,245.222 1228.45,247.056 1226,248.5C 1215.83,239.647 1206.83,240.647 1199,251.5C 1196.22,267.054 1202.72,273.887 1218.5,272C 1221.69,270.906 1224.36,269.073 1226.5,266.5C 1228.61,268.53 1230.61,270.697 1232.5,273C 1223.18,281.862 1212.52,283.862 1200.5,279C 1187.91,269.99 1185.07,258.49 1192,244.5C 1196.13,239.202 1201.29,235.535 1207.5,233.5 Z"/></g>
<g><path style="opacity:1" fill="#fdf8f8" d="M 1257.5,233.5 C 1281.7,233.512 1291.2,245.179 1286,268.5C 1278.97,279.822 1268.8,283.989 1255.5,281C 1240.09,274 1235.25,262.5 1241,246.5C 1245.17,240.35 1250.67,236.017 1257.5,233.5 Z"/></g>
<g><path style="opacity:1" fill="#f2959d" d="M 978.5,234.5 C 978.5,249.833 978.5,265.167 978.5,280.5C 981.167,280.5 983.833,280.5 986.5,280.5C 983.713,281.477 980.713,281.81 977.5,281.5C 977.17,265.658 977.504,249.991 978.5,234.5 Z"/></g>
<g><path style="opacity:1" fill="#fdfbfb" d="M 978.5,234.5 C 981.5,234.5 984.5,234.5 987.5,234.5C 987.334,244.172 987.5,253.839 988,263.5C 995.364,253.979 1002.86,244.645 1010.5,235.5C 1013.17,235.5 1015.83,235.5 1018.5,235.5C 1018.5,250.5 1018.5,265.5 1018.5,280.5C 1015.5,280.5 1012.5,280.5 1009.5,280.5C 1009.67,271.161 1009.5,261.827 1009,252.5C 1001.64,262.021 994.136,271.355 986.5,280.5C 983.833,280.5 981.167,280.5 978.5,280.5C 978.5,265.167 978.5,249.833 978.5,234.5 Z"/></g>
<g><path style="opacity:1" fill="#f7bec2" d="M 1010.5,235.5 C 1013.29,234.523 1016.29,234.19 1019.5,234.5C 1019.5,250.167 1019.5,265.833 1019.5,281.5C 1015.96,281.813 1012.62,281.479 1009.5,280.5C 1012.5,280.5 1015.5,280.5 1018.5,280.5C 1018.5,265.5 1018.5,250.5 1018.5,235.5C 1015.83,235.5 1013.17,235.5 1010.5,235.5 Z"/></g>
<g><path style="opacity:1" fill="#fdfcfc" d="M 1033.5,235.5 C 1036.5,235.5 1039.5,235.5 1042.5,235.5C 1042.18,241.69 1042.51,247.69 1043.5,253.5C 1050.17,253.5 1056.83,253.5 1063.5,253.5C 1063.5,247.5 1063.5,241.5 1063.5,235.5C 1066.5,235.5 1069.5,235.5 1072.5,235.5C 1072.5,250.5 1072.5,265.5 1072.5,280.5C 1069.5,280.5 1066.5,280.5 1063.5,280.5C 1063.82,274.31 1063.49,268.31 1062.5,262.5C 1056.17,262.5 1049.83,262.5 1043.5,262.5C 1042.51,268.31 1042.18,274.31 1042.5,280.5C 1039.5,280.5 1036.5,280.5 1033.5,280.5C 1033.5,265.5 1033.5,250.5 1033.5,235.5 Z"/></g>
<g><path style="opacity:1" fill="#f5abb2" d="M 1033.5,235.5 C 1036.62,234.521 1039.96,234.187 1043.5,234.5C 1043.5,240.5 1043.5,246.5 1043.5,252.5C 1043.5,252.833 1043.5,253.167 1043.5,253.5C 1042.51,247.69 1042.18,241.69 1042.5,235.5C 1039.5,235.5 1036.5,235.5 1033.5,235.5 Z"/></g>
<g><path style="opacity:1" fill="#f28890" d="M 1072.5,280.5 C 1072.5,265.5 1072.5,250.5 1072.5,235.5C 1069.5,235.5 1066.5,235.5 1063.5,235.5C 1063.5,241.5 1063.5,247.5 1063.5,253.5C 1056.83,253.5 1050.17,253.5 1043.5,253.5C 1043.5,253.167 1043.5,252.833 1043.5,252.5C 1049.83,252.5 1056.17,252.5 1062.5,252.5C 1062.5,246.5 1062.5,240.5 1062.5,234.5C 1066.17,234.5 1069.83,234.5 1073.5,234.5C 1073.83,250.009 1073.5,265.342 1072.5,280.5 Z"/></g>
<g><path style="opacity:1" fill="#fdf8f8" d="M 1127.5,279.5 C 1124.38,280.479 1121.04,280.813 1117.5,280.5C 1116.71,277.45 1115.71,274.45 1114.5,271.5C 1108.17,270.167 1101.83,270.167 1095.5,271.5C 1094.29,274.45 1093.29,277.45 1092.5,280.5C 1088.96,280.813 1085.62,280.479 1082.5,279.5C 1087.76,264.712 1093.43,250.045 1099.5,235.5C 1103.17,234.167 1106.83,234.167 1110.5,235.5C 1116.57,250.033 1122.23,264.7 1127.5,279.5 Z"/></g>
<g><path style="opacity:1" fill="#fdfdfd" d="M 1146.5,234.5 C 1146.5,240.833 1146.5,247.167 1146.5,253.5C 1153.17,253.5 1159.83,253.5 1166.5,253.5C 1167.49,247.69 1167.82,241.69 1167.5,235.5C 1170.5,235.5 1173.5,235.5 1176.5,235.5C 1176.5,250.5 1176.5,265.5 1176.5,280.5C 1173.5,280.5 1170.5,280.5 1167.5,280.5C 1167.82,274.31 1167.49,268.31 1166.5,262.5C 1160.02,261.509 1153.35,261.176 1146.5,261.5C 1146.5,267.833 1146.5,274.167 1146.5,280.5C 1143.5,280.5 1140.5,280.5 1137.5,280.5C 1137.5,265.167 1137.5,249.833 1137.5,234.5C 1140.5,234.5 1143.5,234.5 1146.5,234.5 Z"/></g>
<g><path style="opacity:1" fill="#f7c2c7" d="M 1176.5,235.5 C 1173.5,235.5 1170.5,235.5 1167.5,235.5C 1167.82,241.69 1167.49,247.69 1166.5,253.5C 1166.5,253.167 1166.5,252.833 1166.5,252.5C 1166.5,246.5 1166.5,240.5 1166.5,234.5C 1170.04,234.187 1173.38,234.521 1176.5,235.5 Z"/></g>
<g><path style="opacity:1" fill="#fdf7f8" d="M 1298.5,234.5 C 1305.84,234.334 1313.17,234.5 1320.5,235C 1332.88,238.587 1335.55,245.754 1328.5,256.5C 1335.07,261.759 1336.24,268.093 1332,275.5C 1330.79,277.049 1329.29,278.215 1327.5,279C 1317.91,280.42 1308.25,280.92 1298.5,280.5C 1298.5,265.167 1298.5,249.833 1298.5,234.5 Z"/></g>
<g><path style="opacity:1" fill="#fdf8f9" d="M 1346.5,234.5 C 1349.83,234.5 1353.17,234.5 1356.5,234.5C 1356.5,239.5 1356.5,244.5 1356.5,249.5C 1363.18,248.849 1369.52,250.015 1375.5,253C 1382.53,259.719 1383.36,267.219 1378,275.5C 1376.59,276.787 1375.09,277.954 1373.5,279C 1364.58,280.414 1355.58,280.914 1346.5,280.5C 1346.5,265.167 1346.5,249.833 1346.5,234.5 Z"/></g>
<g><path style="opacity:1" fill="#f7bec2" d="M 1396.5,235.5 C 1393.5,235.5 1390.5,235.5 1387.5,235.5C 1387.5,250.5 1387.5,265.5 1387.5,280.5C 1390.5,280.5 1393.5,280.5 1396.5,280.5C 1393.38,281.479 1390.04,281.813 1386.5,281.5C 1386.5,265.833 1386.5,250.167 1386.5,234.5C 1390.04,234.187 1393.38,234.521 1396.5,235.5 Z"/></g>
<g><path style="opacity:1" fill="#fdfefd" d="M 1396.5,235.5 C 1396.5,250.5 1396.5,265.5 1396.5,280.5C 1393.5,280.5 1390.5,280.5 1387.5,280.5C 1387.5,265.5 1387.5,250.5 1387.5,235.5C 1390.5,235.5 1393.5,235.5 1396.5,235.5 Z"/></g>
<g><path style="opacity:1" fill="#fdf7f8" d="M 1416.5,280.5 C 1412.96,280.813 1409.62,280.479 1406.5,279.5C 1411.61,272.115 1416.61,264.615 1421.5,257C 1416.75,249.493 1411.75,242.16 1406.5,235C 1410.54,234.173 1414.54,234.34 1418.5,235.5C 1421.47,240.303 1424.64,244.97 1428,249.5C 1431,244.833 1434,240.167 1437,235.5C 1440.79,234.205 1444.62,234.205 1448.5,235.5C 1443.62,242.542 1438.95,249.709 1434.5,257C 1439.48,264.656 1444.48,272.323 1449.5,280C 1445.83,280.667 1442.17,280.667 1438.5,280C 1435.12,274.747 1431.62,269.58 1428,264.5C 1423.92,269.735 1420.08,275.069 1416.5,280.5 Z"/></g>
<g><path style="opacity:1" fill="#e42333" d="M 1259.5,242.5 C 1276.42,243.679 1281.58,252.012 1275,267.5C 1270.08,272.202 1264.24,273.702 1257.5,272C 1247.79,265.671 1245.96,257.505 1252,247.5C 1254.48,245.686 1256.98,244.019 1259.5,242.5 Z"/></g>
<g><path style="opacity:1" fill="#e41f31" d="M 1308.5,243.5 C 1312.51,243.334 1316.51,243.501 1320.5,244C 1323.17,246.667 1323.17,249.333 1320.5,252C 1316.51,252.499 1312.51,252.666 1308.5,252.5C 1308.5,249.5 1308.5,246.5 1308.5,243.5 Z"/></g>
<g><path style="opacity:1" fill="#e52a38" d="M 932.5,246.5 C 933.833,246.5 935.167,246.5 936.5,246.5C 936.5,253.5 936.5,260.5 936.5,267.5C 927.137,266.807 923.637,261.807 926,252.5C 927.914,250.144 930.081,248.144 932.5,246.5 Z"/></g>
<g><path style="opacity:1" fill="#e42534" d="M 946.5,246.5 C 956.118,248.074 959.284,253.407 956,262.5C 953.715,265.892 950.548,267.559 946.5,267.5C 946.5,260.5 946.5,253.5 946.5,246.5 Z"/></g>
<g><path style="opacity:1" fill="#e62e3a" d="M 1104.5,246.5 C 1106.67,250.984 1108.67,255.65 1110.5,260.5C 1106.83,261.833 1103.17,261.833 1099.5,260.5C 1101.18,255.812 1102.85,251.146 1104.5,246.5 Z"/></g>
<g><path style="opacity:1" fill="#ed6672" d="M 1146.5,234.5 C 1147.49,240.31 1147.82,246.31 1147.5,252.5C 1153.83,252.5 1160.17,252.5 1166.5,252.5C 1166.5,252.833 1166.5,253.167 1166.5,253.5C 1159.83,253.5 1153.17,253.5 1146.5,253.5C 1146.5,247.167 1146.5,240.833 1146.5,234.5 Z"/></g>
<g><path style="opacity:1" fill="#f18993" d="M 1366.5,259.5 C 1363.17,259.5 1359.83,259.5 1356.5,259.5C 1356.5,263.5 1356.5,267.5 1356.5,271.5C 1359.83,271.5 1363.17,271.5 1366.5,271.5C 1363.04,272.482 1359.37,272.815 1355.5,272.5C 1355.5,267.833 1355.5,263.167 1355.5,258.5C 1359.37,258.185 1363.04,258.518 1366.5,259.5 Z"/></g>
<g><path style="opacity:1" fill="#e41f31" d="M 1366.5,259.5 C 1371.58,261.334 1372.74,264.667 1370,269.5C 1369.18,270.823 1368.02,271.489 1366.5,271.5C 1363.17,271.5 1359.83,271.5 1356.5,271.5C 1356.5,267.5 1356.5,263.5 1356.5,259.5C 1359.83,259.5 1363.17,259.5 1366.5,259.5 Z"/></g>
<g><path style="opacity:1" fill="#f28c95" d="M 1320.5,261.5 C 1316.5,261.5 1312.5,261.5 1308.5,261.5C 1308.5,265.167 1308.5,268.833 1308.5,272.5C 1307.52,268.702 1307.18,264.702 1307.5,260.5C 1312.03,260.182 1316.37,260.515 1320.5,261.5 Z"/></g>
<g><path style="opacity:1" fill="#e42031" d="M 1320.5,261.5 C 1324.25,262.828 1325.42,265.494 1324,269.5C 1323.69,270.308 1323.19,270.975 1322.5,271.5C 1317.9,272.443 1313.23,272.777 1308.5,272.5C 1308.5,268.833 1308.5,265.167 1308.5,261.5C 1312.5,261.5 1316.5,261.5 1320.5,261.5 Z"/></g>
<g><path style="opacity:1" fill="#f39aa3" d="M 1043.5,262.5 C 1043.5,268.833 1043.5,275.167 1043.5,281.5C 1039.96,281.813 1036.62,281.479 1033.5,280.5C 1036.5,280.5 1039.5,280.5 1042.5,280.5C 1042.18,274.31 1042.51,268.31 1043.5,262.5 Z"/></g>
<g><path style="opacity:1" fill="#f39aa2" d="M 1062.5,262.5 C 1063.49,268.31 1063.82,274.31 1063.5,280.5C 1066.5,280.5 1069.5,280.5 1072.5,280.5C 1069.38,281.479 1066.04,281.813 1062.5,281.5C 1062.5,275.167 1062.5,268.833 1062.5,262.5 Z"/></g>
<g><path style="opacity:1" fill="#f2919a" d="M 1166.5,262.5 C 1160.17,262.5 1153.83,262.5 1147.5,262.5C 1147.82,268.69 1147.49,274.69 1146.5,280.5C 1146.5,274.167 1146.5,267.833 1146.5,261.5C 1153.35,261.176 1160.02,261.509 1166.5,262.5 Z"/></g>
<g><path style="opacity:1" fill="#f6b2b8" d="M 1166.5,262.5 C 1167.49,268.31 1167.82,274.31 1167.5,280.5C 1170.5,280.5 1173.5,280.5 1176.5,280.5C 1173.38,281.479 1170.04,281.813 1166.5,281.5C 1166.5,275.167 1166.5,268.833 1166.5,262.5 Z"/></g>
<g><path style="opacity:1" fill="#f08891" d="M 1082.5,279.5 C 1085.62,280.479 1088.96,280.813 1092.5,280.5C 1088.98,281.808 1085.31,281.808 1081.5,280.5C 1081.62,279.893 1081.96,279.56 1082.5,279.5 Z"/></g>
<g><path style="opacity:1" fill="#f08690" d="M 1127.5,279.5 C 1128.04,279.56 1128.38,279.893 1128.5,280.5C 1124.69,281.808 1121.02,281.808 1117.5,280.5C 1121.04,280.813 1124.38,280.479 1127.5,279.5 Z"/></g>
<g><path style="opacity:1" fill="#f18a94" d="M 1406.5,279.5 C 1409.62,280.479 1412.96,280.813 1416.5,280.5C 1412.98,281.808 1409.31,281.808 1405.5,280.5C 1405.62,279.893 1405.96,279.56 1406.5,279.5 Z"/></g>
<g><path style="opacity:1" fill="#f49fa8" d="M 1387.5,304.5 C 1384.92,304.025 1382.92,304.692 1381.5,306.5C 1380.6,305.791 1380.26,304.791 1380.5,303.5C 1383.06,303.198 1385.39,303.532 1387.5,304.5 Z"/></g>
<g><path style="opacity:1" fill="#f49da5" d="M 1395.5,304.5 C 1397.61,303.532 1399.94,303.198 1402.5,303.5C 1402.74,304.791 1402.4,305.791 1401.5,306.5C 1400.08,304.692 1398.08,304.025 1395.5,304.5 Z"/></g>
<g><path style="opacity:1" fill="#fdf2f3" d="M 1387.5,304.5 C 1390.1,308.388 1392.76,308.388 1395.5,304.5C 1398.08,304.025 1400.08,304.692 1401.5,306.5C 1397.99,314.575 1392.32,316.408 1384.5,312C 1382.84,310.512 1381.84,308.679 1381.5,306.5C 1382.92,304.692 1384.92,304.025 1387.5,304.5 Z"/></g>
<g><path style="opacity:1" fill="#f29da5" d="M 329.5,317.5 C 339.833,317.5 350.167,317.5 360.5,317.5C 360.737,318.791 360.404,319.791 359.5,320.5C 349.708,318.842 339.708,317.842 329.5,317.5 Z"/></g>
<g><path style="opacity:1" fill="#fdf8f9" d="M 1126.5,318.5 C 1148.69,317.188 1158.86,327.521 1157,349.5C 1150.34,364.065 1139.18,369.232 1123.5,365C 1107.6,356.638 1103.77,344.471 1112,328.5C 1115.98,323.774 1120.81,320.441 1126.5,318.5 Z"/></g>
<g><path style="opacity:1" fill="#fdf7f7" d="M 1234.5,318.5 C 1259.93,318.087 1269.43,330.087 1263,354.5C 1253.58,367.055 1241.75,369.888 1227.5,363C 1215.98,354.433 1213.15,343.599 1219,330.5C 1223.02,324.919 1228.19,320.919 1234.5,318.5 Z"/></g>
<g><path style="opacity:1" fill="#fdfbfb" d="M 918.5,319.5 C 930.5,319.5 942.5,319.5 954.5,319.5C 954.5,322.5 954.5,325.5 954.5,328.5C 950.167,328.5 945.833,328.5 941.5,328.5C 941.5,340.833 941.5,353.167 941.5,365.5C 938.167,365.5 934.833,365.5 931.5,365.5C 931.5,353.167 931.5,340.833 931.5,328.5C 927.167,328.5 922.833,328.5 918.5,328.5C 918.5,325.5 918.5,322.5 918.5,319.5 Z"/></g>
<g><path style="opacity:1" fill="#fdfdfd" d="M 997.5,319.5 C 997.5,322.167 997.5,324.833 997.5,327.5C 989.5,327.5 981.5,327.5 973.5,327.5C 973.187,331.042 973.521,334.375 974.5,337.5C 980.5,337.5 986.5,337.5 992.5,337.5C 992.5,340.5 992.5,343.5 992.5,346.5C 986.5,346.5 980.5,346.5 974.5,346.5C 973.518,349.962 973.185,353.629 973.5,357.5C 981.833,357.5 990.167,357.5 998.5,357.5C 998.5,360.167 998.5,362.833 998.5,365.5C 987.167,365.5 975.833,365.5 964.5,365.5C 964.5,350.167 964.5,334.833 964.5,319.5C 975.5,319.5 986.5,319.5 997.5,319.5 Z"/></g>
<g><path style="opacity:1" fill="#fdf8f9" d="M 1006.5,320.5 C 1009.98,319.357 1013.64,319.19 1017.5,320C 1020.67,324.665 1024.01,329.165 1027.5,333.5C 1030.75,329.341 1033.75,325.008 1036.5,320.5C 1040.17,319.167 1043.83,319.167 1047.5,320.5C 1042.83,327.5 1038.17,334.5 1033.5,341.5C 1038.71,349.42 1044.04,357.253 1049.5,365C 1045.83,365.667 1042.17,365.667 1038.5,365C 1034.79,359.744 1030.96,354.578 1027,349.5C 1023.38,354.58 1019.88,359.747 1016.5,365C 1012.79,365.825 1009.12,365.659 1005.5,364.5C 1010.75,357.004 1015.75,349.337 1020.5,341.5C 1016.06,334.263 1011.39,327.263 1006.5,320.5 Z"/></g>
<g><path style="opacity:1" fill="#fdfcfc" d="M 1068.5,337.5 C 1074.98,338.491 1081.65,338.824 1088.5,338.5C 1088.5,332.167 1088.5,325.833 1088.5,319.5C 1091.5,319.5 1094.5,319.5 1097.5,319.5C 1097.5,334.833 1097.5,350.167 1097.5,365.5C 1094.5,365.5 1091.5,365.5 1088.5,365.5C 1088.5,359.167 1088.5,352.833 1088.5,346.5C 1081.65,346.176 1074.98,346.509 1068.5,347.5C 1068.5,353.5 1068.5,359.5 1068.5,365.5C 1065.17,365.5 1061.83,365.5 1058.5,365.5C 1058.5,350.167 1058.5,334.833 1058.5,319.5C 1061.83,319.5 1065.17,319.5 1068.5,319.5C 1068.5,325.5 1068.5,331.5 1068.5,337.5 Z"/></g>
<g><path style="opacity:1" fill="#fdf7f8" d="M 1172.5,319.5 C 1183.83,319.5 1195.17,319.5 1206.5,319.5C 1206.5,334.833 1206.5,350.167 1206.5,365.5C 1203.17,365.5 1199.83,365.5 1196.5,365.5C 1196.5,353.167 1196.5,340.833 1196.5,328.5C 1191.83,328.5 1187.17,328.5 1182.5,328.5C 1182.67,334.842 1182.5,341.175 1182,347.5C 1181.53,352.898 1179.87,357.898 1177,362.5C 1172.86,366.191 1168.03,367.358 1162.5,366C 1161.55,362.943 1161.22,359.777 1161.5,356.5C 1166.18,357.544 1169.35,355.877 1171,351.5C 1172.37,340.889 1172.87,330.222 1172.5,319.5 Z"/></g>
<g><path style="opacity:1" fill="#fdfafa" d="M 1306.5,319.5 C 1306.5,322.167 1306.5,324.833 1306.5,327.5C 1299.31,327.175 1292.31,327.509 1285.5,328.5C 1285.5,340.833 1285.5,353.167 1285.5,365.5C 1282.17,365.5 1278.83,365.5 1275.5,365.5C 1275.5,350.167 1275.5,334.833 1275.5,319.5C 1285.83,319.5 1296.17,319.5 1306.5,319.5 Z"/></g>
<g><path style="opacity:1" fill="#fdf6f7" d="M 1325.5,319.5 C 1325.33,329.172 1325.5,338.839 1326,348.5C 1326.72,347.956 1327.22,347.289 1327.5,346.5C 1334.13,337.424 1341.13,328.591 1348.5,320C 1351.48,319.502 1354.48,319.335 1357.5,319.5C 1357.5,334.833 1357.5,350.167 1357.5,365.5C 1354.17,365.5 1350.83,365.5 1347.5,365.5C 1347.67,355.828 1347.5,346.161 1347,336.5C 1346.28,337.044 1345.78,337.711 1345.5,338.5C 1338.39,347.212 1331.39,356.045 1324.5,365C 1321.52,365.498 1318.52,365.665 1315.5,365.5C 1315.5,350.167 1315.5,334.833 1315.5,319.5C 1318.83,319.5 1322.17,319.5 1325.5,319.5 Z"/></g>
<g><path style="opacity:1" fill="#e94756" d="M 1325.5,319.5 C 1326.17,328.5 1326.83,337.5 1327.5,346.5C 1327.22,347.289 1326.72,347.956 1326,348.5C 1325.5,338.839 1325.33,329.172 1325.5,319.5 Z"/></g>
<g><path style="opacity:1" fill="#fdf7f7" d="M 1380.5,319.5 C 1380.33,329.172 1380.5,338.839 1381,348.5C 1381.72,347.956 1382.22,347.289 1382.5,346.5C 1389.6,337.827 1396.6,328.994 1403.5,320C 1406.48,319.502 1409.48,319.335 1412.5,319.5C 1412.5,334.833 1412.5,350.167 1412.5,365.5C 1409.17,365.5 1405.83,365.5 1402.5,365.5C 1402.67,355.828 1402.5,346.161 1402,336.5C 1394.64,345.691 1387.48,355.024 1380.5,364.5C 1377.23,365.487 1373.9,365.82 1370.5,365.5C 1370.5,350.167 1370.5,334.833 1370.5,319.5C 1373.83,319.5 1377.17,319.5 1380.5,319.5 Z"/></g>
<g><path style="opacity:1" fill="#ee7782" d="M 1380.5,319.5 C 1381.17,328.5 1381.83,337.5 1382.5,346.5C 1382.22,347.289 1381.72,347.956 1381,348.5C 1380.5,338.839 1380.33,329.172 1380.5,319.5 Z"/></g>
<g><path style="opacity:1" fill="#f8c1c5" d="M 997.5,319.5 C 998.477,322.287 998.81,325.287 998.5,328.5C 990.5,328.5 982.5,328.5 974.5,328.5C 974.5,331.5 974.5,334.5 974.5,337.5C 973.521,334.375 973.187,331.042 973.5,327.5C 981.5,327.5 989.5,327.5 997.5,327.5C 997.5,324.833 997.5,322.167 997.5,319.5 Z"/></g>
<g><path style="opacity:1" fill="#e42333" d="M 1127.5,327.5 C 1143.36,326.849 1149.52,334.182 1146,349.5C 1141.67,356.283 1135.5,358.783 1127.5,357C 1114.21,347.219 1114.21,337.386 1127.5,327.5 Z"/></g>
<g><path style="opacity:1" fill="#e42032" d="M 1236.5,327.5 C 1253.17,327.854 1258.67,335.854 1253,351.5C 1244.29,359.795 1235.96,359.461 1228,350.5C 1223.75,340.034 1226.59,332.367 1236.5,327.5 Z"/></g>
<g><path style="opacity:1" fill="#f9ccd0" d="M 1306.5,319.5 C 1307.48,322.287 1307.81,325.287 1307.5,328.5C 1300.17,328.5 1292.83,328.5 1285.5,328.5C 1292.31,327.509 1299.31,327.175 1306.5,327.5C 1306.5,324.833 1306.5,322.167 1306.5,319.5 Z"/></g>
<g><path style="opacity:1" fill="#f3979f" d="M 1088.5,319.5 C 1088.5,325.833 1088.5,332.167 1088.5,338.5C 1081.65,338.824 1074.98,338.491 1068.5,337.5C 1074.83,337.5 1081.17,337.5 1087.5,337.5C 1087.18,331.31 1087.51,325.31 1088.5,319.5 Z"/></g>
<g><path style="opacity:1" fill="#ee6b78" d="M 1347.5,365.5 C 1346.83,356.5 1346.17,347.5 1345.5,338.5C 1345.78,337.711 1346.28,337.044 1347,336.5C 1347.5,346.161 1347.67,355.828 1347.5,365.5 Z"/></g>
<g><path style="opacity:1" fill="#ee7681" d="M 1068.5,347.5 C 1074.98,346.509 1081.65,346.176 1088.5,346.5C 1088.5,352.833 1088.5,359.167 1088.5,365.5C 1087.51,359.69 1087.18,353.69 1087.5,347.5C 1081.17,347.5 1074.83,347.5 1068.5,347.5 Z"/></g>
<g><path style="opacity:1" fill="#f7b9be" d="M 974.5,346.5 C 974.5,349.833 974.5,353.167 974.5,356.5C 982.684,356.174 990.684,356.508 998.5,357.5C 990.167,357.5 981.833,357.5 973.5,357.5C 973.185,353.629 973.518,349.962 974.5,346.5 Z"/></g>
<g><path style="opacity:1" fill="#e84453" d="M 153.5,365.5 C 204.167,365.5 254.833,365.5 305.5,365.5C 305.5,373.167 305.5,380.833 305.5,388.5C 304.508,381.352 304.175,374.019 304.5,366.5C 253.997,366.832 203.664,366.499 153.5,365.5 Z"/></g>
</svg>
